<?xml version="1.0" encoding="UTF-8"?>
<svg xmlns="http://www.w3.org/2000/svg" version="1.1" viewBox="0 0 42 42">
  <defs>
    <style>
      .cls-1 {
        fill: #f2d43d;
      }

      .cls-2 {
        fill: #fff;
      }
    </style>
  </defs>
  <!-- Generator: Adobe Illustrator 28.6.0, SVG Export Plug-In . SVG Version: 1.2.0 Build 709)  -->
  <g>
    <g id="Layer_1">
      <rect class="cls-1" x="37" y="20.5" width="5" height="1"/>
      <rect class="cls-1" x="20.5" y="37" width="1" height="5"/>
      <rect class="cls-1" y="20.5" width="5" height="1"/>
      <rect class="cls-1" x="20.5" width="1" height="5"/>
      <rect class="cls-1" x="34.5" y="11.3" width="5" height="1" transform="translate(-.9 20.1) rotate(-30)"/>
      <rect class="cls-1" x="29.7" y="34.5" width="1" height="5" transform="translate(-14.5 20.1) rotate(-30)"/>
      <rect class="cls-1" x="2.5" y="29.7" width="5" height="1" transform="translate(-14.5 6.5) rotate(-30)"/>
      <rect class="cls-1" x="11.3" y="2.5" width="1" height="5" transform="translate(-.9 6.5) rotate(-30)"/>
      <rect class="cls-1" x="36.5" y="27.7" width="1" height="5" transform="translate(-7.7 47.2) rotate(-60)"/>
      <rect class="cls-1" x="9.2" y="36.5" width="5" height="1" transform="translate(-26.2 28.7) rotate(-60)"/>
      <rect class="cls-1" x="4.5" y="9.3" width="1" height="5" transform="translate(-7.7 10.2) rotate(-60)"/>
      <rect class="cls-1" x="27.7" y="4.5" width="5" height="1" transform="translate(10.8 28.7) rotate(-60)"/>
    </g>
    <g id="Layer_2">
      <circle class="cls-1" cx="21" cy="21" r="15"/>
      <path class="cls-2" d="M19.6,26.6v-1c-.3-2,.4-4.2,2.2-6.4,1.7-2,2.6-3.4,2.6-5.1s-1.2-3.1-3.5-3.2c-1.3,0-2.8.4-3.7,1.1l-.9-2.3c1.2-.9,3.3-1.5,5.3-1.5,4.3,0,6.2,2.6,6.2,5.4s-1.4,4.3-3.2,6.4c-1.6,1.9-2.2,3.5-2.1,5.4v1s-2.8,0-2.8,0ZM18.7,31.7c0-1.4.9-2.3,2.2-2.3s2.2,1,2.2,2.3-.9,2.3-2.2,2.3-2.2-1-2.2-2.3Z"/>
    </g>
  </g>
</svg>